<?xml version="1.0" encoding="UTF-8" standalone="no"?>
<svg 
    version="1.1" 
    xmlns="http://www.w3.org/2000/svg" 
    xmlns:xlink="http://www.w3.org/1999/xlink" 
    xmlns:rdf="http://www.w3.org/1999/02/22-rdf-syntax-ns#"
    xmlns:cc="http://creativecommons.org/ns#"
    xmlns:dc="http://purl.org/dc/elements/1.1/"
    viewBox="0 0 768 768"
    width="768"
    height="768"
>
    <style>
        svg { background-color: transparent; }
    </style>
    <path 
        stroke="none" 
        fill="#78a6b6" 
        fill-rule="evenodd" 
        d="
            M453.50,678.58
            C394.10,678.67 344.15,678.57 342.50,678.35
            C340.85,678.14 335.23,677.28 330.00,676.44
            C324.77,675.60 315.10,673.55 308.50,671.89
            C301.90,670.23 290.43,666.60 283.00,663.83
            C275.57,661.06 265.00,656.54 259.50,653.79
            C254.00,651.04 246.57,647.19 243.00,645.24
            C239.43,643.28 230.20,637.52 222.50,632.44
            C214.80,627.36 203.78,619.24 198.00,614.40
            C192.22,609.55 181.86,599.95 174.97,593.05
            C168.08,586.15 159.04,576.45 154.89,571.50
            C150.73,566.55 144.05,558.07 140.05,552.66
            C136.05,547.25 129.36,537.35 125.19,530.66
            C121.02,523.97 113.27,509.95 107.97,499.50
            C102.67,489.05 96.42,475.10 94.09,468.50
            C91.75,461.90 88.27,451.10 86.36,444.50
            C84.45,437.90 82.28,428.45 81.54,423.50
            C80.80,418.55 80.40,414.16 80.65,413.75
            C80.91,413.34 89.63,413.00 100.02,413.00
            C118.32,413.00 118.97,413.07 120.08,415.14
            C120.88,416.65 121.15,426.23 120.97,447.39
            C120.84,463.95 120.79,483.68 120.86,491.24
            C121.00,504.98 121.00,504.98 165.75,505.24
            C210.50,505.50 210.50,505.50 210.50,527.00
            C210.50,548.50 210.50,548.50 198.09,548.50
            C189.64,548.50 185.55,548.87 185.29,549.65
            C185.08,550.28 187.59,553.82 190.87,557.51
            C194.15,561.21 201.48,568.52 207.17,573.76
            C212.85,579.00 221.32,586.14 226.00,589.64
            C234.50,595.98 234.50,595.98 268.00,595.98
            C286.43,595.97 302.05,595.62 302.73,595.19
            C303.63,594.62 304.03,588.59 304.23,572.95
            C304.50,551.50 304.50,551.50 326.72,551.23
            C348.94,550.96 348.94,550.96 348.96,595.05
            C348.96,619.30 349.23,639.56 349.54,640.07
            C349.86,640.59 357.98,641.00 367.81,640.99
            C377.54,640.99 387.86,640.70 390.75,640.35
            C396.00,639.72 396.00,639.72 396.00,617.88
            C396.00,596.06 396.00,596.04 398.25,595.49
            C399.49,595.18 409.73,595.06 421.00,595.22
            C441.50,595.50 441.50,595.50 441.77,617.65
            C442.04,639.80 442.04,639.80 446.36,640.15
            C448.73,640.34 475.39,640.26 505.59,639.97
            C560.50,639.45 560.50,639.45 567.50,636.70
            C571.35,635.19 577.51,631.70 581.19,628.94
            C584.87,626.18 589.49,621.74 591.45,619.06
            C593.42,616.39 595.97,612.05 597.13,609.43
            C598.47,606.41 599.43,601.66 599.75,596.46
            C600.22,589.07 600.01,587.73 597.65,582.88
            C596.21,579.92 593.56,575.25 591.77,572.50
            C588.92,568.13 588.51,566.66 588.51,560.83
            C588.50,555.61 588.96,553.54 590.60,551.33
            C591.75,549.77 593.78,547.96 595.10,547.30
            C596.42,546.65 600.17,545.30 603.42,544.30
            C607.46,543.07 610.00,541.61 611.41,539.70
            C612.92,537.64 613.47,535.38 613.47,531.19
            C613.47,527.03 612.86,524.51 611.22,521.86
            C609.99,519.87 607.60,517.66 605.91,516.96
            C604.22,516.26 600.28,515.18 597.17,514.57
            C592.17,513.58 591.29,513.04 589.75,509.97
            C588.75,507.98 588.03,504.37 588.06,501.50
            C588.09,498.75 588.65,494.94 589.31,493.03
            C589.96,491.11 591.62,488.99 593.00,488.29
            C594.38,487.60 598.20,487.00 601.50,486.96
            C604.80,486.91 609.72,486.52 612.44,486.07
            C616.12,485.47 618.10,484.46 620.19,482.11
            C623.00,478.97 623.00,478.97 623.00,449.04
            C623.00,426.19 623.30,418.93 624.25,418.34
            C624.94,417.91 631.23,417.27 638.24,416.92
            C648.97,416.38 651.72,415.90 655.74,413.85
            C658.82,412.28 661.61,409.77 663.65,406.74
            C665.59,403.88 667.07,400.14 667.49,397.09
            C667.96,393.64 667.66,390.32 666.52,386.30
            C665.61,383.11 663.25,378.02 661.28,375.00
            C659.31,371.98 652.03,362.40 645.10,353.72
            C638.17,345.04 629.91,333.82 626.74,328.80
            C623.57,323.77 620.02,316.70 618.86,313.08
            C617.28,308.17 616.74,303.95 616.75,296.46
            C616.75,290.94 617.37,283.06 618.12,278.96
            C618.94,274.50 619.48,264.67 619.47,254.50
            C619.46,240.45 619.05,235.68 617.14,227.00
            C615.86,221.22 613.09,211.32 610.98,205.00
            C608.86,198.68 605.33,189.62 603.13,184.87
            C600.93,180.12 596.22,171.35 592.67,165.37
            C589.12,159.39 582.95,150.23 578.96,145.02
            C574.97,139.80 568.96,132.46 565.60,128.70
            C562.25,124.94 554.55,117.57 548.50,112.32
            C542.45,107.07 532.55,99.48 526.50,95.45
            C520.45,91.42 509.65,85.22 502.50,81.67
            C495.35,78.11 485.00,73.53 479.50,71.48
            C474.00,69.43 464.55,66.51 458.50,64.98
            C452.45,63.45 443.23,61.50 438.00,60.64
            C432.77,59.78 423.32,58.61 417.00,58.04
            C410.68,57.47 399.95,57.01 393.17,57.00
            C386.39,57.00 375.37,57.47 368.67,58.06
            C361.98,58.64 349.72,60.43 341.44,62.04
            C333.16,63.65 321.88,66.30 316.38,67.93
            C310.88,69.57 300.33,73.37 292.94,76.38
            C285.55,79.40 275.23,83.86 270.00,86.31
            C264.77,88.75 257.35,92.64 253.50,94.95
            C228.80,110.00 227.48,110.91 226.47,112.03
            C225.46,113.15 223.03,115.05 221.07,116.24
            C219.10,117.44 217.00,118.89 216.38,119.46
            C215.76,120.03 211.49,123.65 206.88,127.50
            C202.27,131.35 194.22,138.77 189.00,144.00
            C183.77,149.22 176.43,157.44 172.69,162.26
            C168.94,167.07 162.54,175.96 158.46,182.00
            C154.37,188.04 147.42,200.26 143.02,209.15
            C138.61,218.04 135.00,226.37 135.00,227.66
            C135.00,230.00 135.00,230.00 151.00,230.00
            C167.00,230.00 167.00,230.00 167.00,251.35
            C167.00,272.71 167.00,272.71 124.89,273.44
            C96.46,273.94 82.44,273.84 81.75,273.15
            C81.05,272.45 81.57,268.71 83.39,261.31
            C84.86,255.37 87.45,246.22 89.14,241.00
            C90.83,235.78 94.24,226.32 96.73,220.00
            C99.21,213.68 103.41,204.00 106.05,198.50
            C108.70,193.00 113.17,184.51 115.99,179.64
            C118.80,174.77 124.96,165.00 129.66,157.93
            C134.36,150.87 141.83,140.68 146.26,135.29
            C150.68,129.91 161.55,118.29 170.40,109.47
            C180.74,99.19 191.33,89.83 200.00,83.35
            C207.43,77.79 216.65,71.22 220.50,68.75
            C224.35,66.27 232.00,61.75 237.50,58.69
            C243.00,55.63 253.70,50.39 261.29,47.04
            C268.87,43.69 281.69,38.68 289.79,35.92
            C297.88,33.15 309.68,29.58 316.00,27.99
            C322.32,26.41 332.90,24.20 339.50,23.08
            C346.10,21.97 356.90,20.54 363.50,19.90
            C370.83,19.19 384.06,18.95 397.50,19.27
            C412.13,19.63 424.21,20.51 433.54,21.90
            C441.27,23.05 453.88,25.54 461.56,27.43
            C469.24,29.31 481.37,32.95 488.52,35.52
            C495.66,38.08 507.35,43.02 514.50,46.51
            C521.65,49.99 532.10,55.58 537.73,58.93
            C543.35,62.29 552.35,68.36 557.73,72.42
            C563.10,76.49 571.48,83.42 576.35,87.83
            C581.22,92.23 589.01,100.03 593.67,105.17
            C598.33,110.30 605.85,119.45 610.38,125.50
            C614.92,131.55 621.02,140.27 623.94,144.88
            C626.86,149.50 632.07,158.95 635.52,165.88
            C638.97,172.82 643.40,182.84 645.37,188.14
            C647.34,193.44 650.10,202.21 651.51,207.63
            C652.92,213.06 654.73,221.55 655.53,226.50
            C656.33,231.45 657.26,240.90 657.59,247.50
            C658.01,255.76 657.70,263.66 656.60,272.85
            C655.72,280.18 655.01,289.41 655.02,293.35
            C655.04,298.45 655.70,302.07 657.31,306.00
            C658.56,309.02 661.56,314.43 663.99,318.00
            C666.41,321.57 673.83,331.25 680.47,339.50
            C687.12,347.75 693.94,356.76 695.64,359.53
            C697.33,362.30 699.71,366.80 700.92,369.53
            C702.13,372.26 703.77,377.20 704.55,380.50
            C705.33,383.80 705.98,390.57 705.99,395.54
            C705.99,400.51 705.31,407.23 704.47,410.46
            C703.63,413.69 701.60,418.85 699.96,421.92
            C698.32,424.99 695.14,429.64 692.90,432.26
            C690.66,434.88 686.72,438.47 684.16,440.23
            C681.60,442.00 675.68,444.82 671.00,446.50
            C662.50,449.57 662.50,449.57 662.81,467.31
            C663.06,481.29 662.79,486.22 661.54,490.52
            C660.66,493.53 658.57,497.56 656.88,499.48
            C655.19,501.41 652.05,503.97 649.91,505.17
            C647.76,506.38 646.00,507.75 646.00,508.22
            C646.00,508.68 647.16,511.36 648.59,514.17
            C650.01,516.98 651.63,522.18 652.18,525.71
            C652.89,530.27 652.84,534.09 652.02,538.82
            C651.38,542.49 649.48,548.07 647.79,551.23
            C646.11,554.39 642.88,558.46 640.62,560.27
            C638.35,562.09 635.26,564.35 633.75,565.31
            C631.00,567.05 631.00,567.06 632.63,570.78
            C633.53,572.82 635.13,577.42 636.19,581.00
            C637.75,586.24 638.05,589.72 637.73,599.00
            C637.41,608.60 636.84,611.94 634.29,619.26
            C632.61,624.08 629.72,630.53 627.87,633.60
            C626.01,636.67 622.12,642.07 619.21,645.61
            C616.31,649.14 610.46,654.80 606.21,658.18
            C601.93,661.60 594.05,666.46 588.50,669.12
            C583.00,671.76 574.67,674.92 570.00,676.16
            C561.50,678.41 561.50,678.41 453.50,678.58
            z
            M97.62,598.00
            C84.00,598.00 78.05,597.65 77.20,596.80
            C76.34,595.94 76.00,589.56 76.00,574.41
            C76.00,556.00 76.21,553.13 77.58,552.61
            C78.45,552.27 87.64,552.00 98.00,552.00
            C108.36,552.00 117.55,552.27 118.42,552.61
            C119.79,553.13 120.00,556.06 120.00,575.00
            C120.00,593.94 119.79,596.87 118.42,597.39
            C117.55,597.73 108.19,598.00 97.62,598.00
            z
            M372.52,547.77
            C351.00,548.04 351.00,548.04 351.00,527.00
            C351.00,505.96 351.00,505.96 372.62,506.23
            C394.24,506.50 394.24,506.50 394.13,527.00
            C394.03,547.50 394.03,547.50 372.52,547.77
            z
            M280.47,504.00
            C263.89,504.00 258.82,503.71 258.45,502.72
            C258.18,502.01 258.15,498.30 258.39,494.47
            C258.62,490.64 258.86,481.09 258.91,473.25
            C259.00,459.00 259.00,459.00 280.50,459.00
            C302.00,459.00 302.00,459.00 302.00,481.50
            C302.00,504.00 302.00,504.00 280.47,504.00
            z
            M189.23,458.77
            C172.54,458.98 167.85,458.76 167.46,457.75
            C167.18,457.03 167.08,446.79 167.23,434.98
            C167.50,413.50 167.50,413.50 189.27,413.23
            C211.04,412.96 211.04,412.96 210.77,435.73
            C210.50,458.50 210.50,458.50 189.23,458.77
            z
            M235.44,411.77
            C223.30,411.92 213.05,411.71 212.65,411.32
            C212.26,410.92 211.98,400.68 212.04,388.55
            C212.15,366.50 212.15,366.50 188.82,366.00
            C165.50,365.50 165.50,365.50 165.23,343.40
            C164.96,321.30 164.96,321.30 174.73,320.66
            C180.10,320.30 190.44,320.01 197.69,320.01
            C205.86,320.00 211.13,320.40 211.53,321.05
            C211.89,321.63 212.26,331.65 212.34,343.30
            C212.50,364.50 212.50,364.50 234.14,364.84
            C246.04,365.02 256.02,364.77 256.32,364.29
            C256.62,363.80 256.97,354.09 257.09,342.70
            C257.25,327.86 257.66,321.70 258.53,320.97
            C259.30,320.34 267.77,320.06 281.13,320.23
            C302.50,320.50 302.50,320.50 302.50,343.00
            C302.50,365.50 302.50,365.50 280.27,365.77
            C258.04,366.04 258.04,366.04 257.77,388.77
            C257.50,411.50 257.50,411.50 235.44,411.77
            z
            M98.67,366.00
            C86.93,366.00 77.03,365.70 76.67,365.33
            C76.30,364.97 76.00,355.09 76.00,343.39
            C76.00,331.45 76.41,321.87 76.92,321.55
            C77.43,321.23 87.07,320.74 98.34,320.44
            C113.97,320.04 119.01,320.20 119.59,321.14
            C120.01,321.82 120.27,331.63 120.17,342.94
            C120.08,354.25 120.00,364.06 120.00,364.75
            C120.00,365.71 115.07,366.00 98.67,366.00
            z
            M541.68,321.00
            C507.59,320.99 506.39,320.93 503.02,318.87
            C501.10,317.70 498.95,316.02 498.25,315.12
            C497.54,314.23 496.02,311.74 494.87,309.58
            C493.25,306.53 492.88,304.38 493.20,299.92
            C493.49,295.85 494.40,292.99 496.32,290.10
            C497.80,287.85 500.89,284.78 503.18,283.26
            C507.35,280.50 507.35,280.50 534.91,280.20
            C558.31,279.95 563.10,280.15 566.68,281.51
            C568.99,282.40 572.61,284.80 574.73,286.85
            C576.84,288.91 579.42,292.37 580.46,294.54
            C581.49,296.72 582.53,300.53 582.77,303.01
            C583.01,305.49 582.71,309.37 582.10,311.63
            C581.49,313.89 580.06,316.92 578.92,318.37
            C576.85,321.00 576.85,321.00 541.68,321.00
            z
            M280.75,181.00
            C259.00,181.00 259.00,181.00 259.00,159.69
            C259.00,138.37 259.00,138.37 265.25,138.81
            C268.69,139.05 272.26,139.64 273.18,140.12
            C274.11,140.60 275.60,141.00 276.49,141.00
            C277.39,141.00 277.86,140.59 277.55,140.08
            C277.24,139.57 279.80,138.93 283.24,138.65
            C286.68,138.36 292.39,138.21 295.92,138.31
            C302.34,138.50 302.34,138.50 302.42,159.75
            C302.50,181.00 302.50,181.00 280.75,181.00
            M97.73,94.77
            C75.96,95.04 75.96,95.04 76.23,73.27
            C76.50,51.50 76.50,51.50 98.00,51.50
            C119.50,51.50 119.50,51.50 119.50,73.00
            C119.50,94.50 119.50,94.50 97.73,94.77
            z
            M189.73,57.77
            C173.43,57.98 168.85,57.76 168.46,56.74
            C168.18,56.03 168.08,46.23 168.23,34.97
            C168.50,14.50 168.50,14.50 189.50,14.50
            C210.50,14.50 210.50,14.50 210.50,36.00
            C210.50,57.50 210.50,57.50 189.73,57.77
            z
        "
    />
</svg>
